<svg width="54" height="51" fill="none" xmlns="http://www.w3.org/2000/svg"><path d="M6.655 7.218c-2.512.137-4.39 1.294-5.49 3.392C.5 11.875.52 11.159.552 25.805l.032 13.313.28.735c.674 1.735 2.18 3.147 4.007 3.745l.695.225H48.54l.717-.264c1.889-.726 3.248-2.03 3.923-3.804l.239-.638.031-13.312c.032-14.646.052-13.94-.612-15.215-.841-1.618-2.367-2.784-4.225-3.235-.591-.147-2.626-.167-20.76-.176-11.055-.01-20.594.01-21.197.039zm38.81 4.666c-.01.138-18.019 12.137-18.185 12.127-.145-.01-17.096-12.058-17.096-12.156 0-.02 7.941-.04 17.646-.04 9.705 0 17.646.03 17.636.07zM16.33 22.158c5.927 4.235 10.815 7.696 10.867 7.696.062 0 4.858-3.196 10.67-7.088l10.567-7.098.032 11.333c.02 10.823.01 11.342-.167 11.568a2.485 2.485 0 01-.477.44l-.28.207H6.458l-.28-.206a2.754 2.754 0 01-.498-.47c-.218-.265-.218-.324-.25-12.177-.01-6.548.011-11.9.053-11.9.051 0 4.93 3.46 10.847 7.696z" fill="#FA3939"/></svg>