<svg width="39" height="35" fill="none" xmlns="http://www.w3.org/2000/svg"><path d="M22.185 27.969l7.563 5.174a1 1 0 001.545-.632l5.842-29.656a1 1 0 00-1.374-1.113L2.425 15.965c-.846.361-.797 1.578.076 1.869L3 18l8.57 3.333a1 1 0 01.582.603L16 33l4.913-4.913a1 1 0 011.272-.118z" fill="#F2F2F2"/><path d="M16 33l4.913-4.913a1 1 0 011.272-.118l7.563 5.174a1 1 0 001.545-.632l5.842-29.656a1 1 0 00-1.374-1.113L2.425 15.965c-.846.361-.797 1.578.076 1.869L3 18l8.57 3.333a1 1 0 01.582.603L16 33zm0 0l1.5-11" stroke="#FA3939" stroke-width="2"/><path d="M17.027 22.473L30.233 9.741c.087-.085-.023-.222-.124-.156l-9.634 6.317-8.406 5.3a.1.1 0 00-.04.118l4.05 11.237c.036.102.185.081.193-.027l.726-9.992a.1.1 0 01.03-.065z" fill="#FF5959" fill-opacity=".5" stroke="#FA3939" stroke-width="2"/></svg>