<svg width="43" height="43" fill="none" xmlns="http://www.w3.org/2000/svg"><g filter="url(#filter0_d)"><path d="M13.18 14.61l-.012-.031c-.275-.703.028-1.315.41-1.764.367-.433.895-.82 1.332-1.142l.026-.02h0c.274-.2.524-.385.734-.56l.01-.008.01-.008c.708-.527 1.18-1.044 1.399-1.56h0a1.69 1.69 0 00.14-.894c-.037-.284-.162-.59-.418-.922l-.02-.026-.015-.027-3.843-6.544h-.001l-.238-.402A.328.328 0 0012.44.54h-.001C10.2.34 8.503.908 7.258 1.92h0C5.833 3.08 4.979 4.851 4.66 6.857h0c-.584 3.663.483 7.546 2.488 11.194 2.381 4.332 6.063 8.292 9.68 11.036.971.736 1.971 1.36 2.921 1.95h0l.15.094s0 0 0 0c2.04 1.27 3.886 2.21 5.695 2.77 1.846.57 3.648.748 5.558.466h0c1.252-.184 2.516-.468 3.64-.991 1.175-.546 2.173-1.337 2.841-2.52.526-.93.872-2.005.868-2.93v0c-.003-.887-.301-1.609-.977-2.075l-.008-.005h0a.306.306 0 00-.024-.016l-6.373-3.679-.015-.009-.015-.01a.304.304 0 00-.043-.024l-.002-.001c-.394-.184-.737-.22-1.045-.172-.315.05-.625.194-.938.42-.643.465-1.21 1.207-1.77 1.946l-.008.01c-.27.357-.55.728-.786.964h0c-.284.284-.626.572-.999.712M13.18 14.61l18.074 7.044c-1.912-.89-3.267.9-4.362 2.346-.282.372-.542.715-.75.922-.272.272-.552.497-.82.598a.697.697 0 01-.445.024l.319.126v.002l-.158.397M13.18 14.609l.016.03c1.191 2.153 2.57 4.24 4.367 6.15m-4.383-6.18l.454-.213m11.863 11.592l-.175-.468.176.468s0 0 0 0zm0 0c-.145.055-.3.084-.46.081m0 0l-.043.11-.488-.245-.003-.002h-.002c-2.897-1.478-5.132-3.224-6.938-5.143m7.475 5.28a1.214 1.214 0 01-.534-.138s0 0 0 0l.032-.064.194-.38h-.002l-.462-.184v-.002l.019-.046c-2.631-1.4-4.683-3.03-6.358-4.81m-2.695-8.388c.271-.2.534-.393.758-.579.736-.549 1.29-1.13 1.56-1.765.324-.768.258-1.54-.343-2.318l-1.975 4.662zm0 0h0m0 0h0m-1.598 2.34c1.178 2.13 2.534 4.18 4.293 6.049m-4.293-6.05c-.355-.903.687-1.669 1.598-2.339m-1.598 2.34l1.598-2.34m2.695 8.389l-.364.342m.364-.342l-.364.343s0 0 0 0m-.475.459h0c1.856 1.972 4.145 3.767 7.116 5.282l.074.038c.507.237.979.222 1.447.047h0c.432-.163.84-.469 1.236-.863.264-.264.533-.617.853-1.04h0l.015-.02c.355-.468.784-1.035 1.22-1.444.22-.207.471-.402.743-.518.281-.12.619-.17.956-.02l.025.01.024.014 6.337 3.658.022.013.021.015c.507.366.662.96.664 1.504v0c.003.853-.332 1.803-.782 2.601h0c-.602 1.065-1.52 1.766-2.542 2.241h0c-1.077.5-2.301.767-3.461.937-1.817.268-3.533.095-5.27-.442-1.778-.55-3.585-1.48-5.544-2.7h0l-.15-.093h0l-.008-.005c-.895-.557-1.878-1.169-2.858-1.912-3.548-2.69-7.158-6.564-9.497-10.821h0C5.826 14.268 4.745 10.517 5.31 6.962c.284-1.78 1.033-3.435 2.364-4.517l9.413 18.803zm0 0c-1.844-1.96-3.254-4.086-4.477-6.3l-.006-.01m4.483 6.31l-4.483-6.31m0 0l-.006-.01m.006.01l-.006-.01m0 0a.315.315 0 01-.022-.043v-.001m.022.044l-.023-.044m0 0c-.197-.467-.247-.856-.21-1.188a2.05 2.05 0 01.361-.932c.412-.61 1.093-1.118 1.82-1.651l-.297-.403m-1.674 4.174l1.674-4.174m0 0l.296.403.27-.2m-.566-.203l.566.203m0 0l.011.018.43-.361.004-.004.006-.005h0l.003-.002c.53-.39 1.01-.83 1.21-1.305h.001c.17-.4.068-.804-.197-1.148l-.008-.01-.008-.01a.348.348 0 01-.036-.05s0 0 0 0l-3.884-6.614-.138-.235-.272-.011c-1.777-.074-3.197.402-4.263 1.269l7.141 8.468zM12.483.043V.041h0z" stroke="#FA3939"/></g><defs><filter id="filter0_d" x="0" y="0" width="43" height="43" filterUnits="userSpaceOnUse" color-interpolation-filters="sRGB"><feFlood flood-opacity="0" result="BackgroundImageFix"/><feColorMatrix in="SourceAlpha" values="0 0 0 0 0 0 0 0 0 0 0 0 0 0 0 0 0 0 127 0"/><feOffset dy="4"/><feGaussianBlur stdDeviation="2"/><feColorMatrix values="0 0 0 0 1 0 0 0 0 0.34902 0 0 0 0 0.34902 0 0 0 0.25 0"/><feBlend in2="BackgroundImageFix" result="effect1_dropShadow"/><feBlend in="SourceGraphic" in2="effect1_dropShadow" result="shape"/></filter></defs></svg>